M48
; DRILL file {KiCad 7.0.1} date Tue Aug 15 23:23:35 2023
; FORMAT={-:-/ absolute / inch / decimal}
; #@! TF.CreationDate,2023-08-15T23:23:35+02:00
; #@! TF.GenerationSoftware,Kicad,Pcbnew,7.0.1
; #@! TF.FileFunction,Plated,1,2,PTH
FMAT,2
INCH
; #@! TA.AperFunction,Plated,PTH,ComponentDrill
T1C0.0315
; #@! TA.AperFunction,Plated,PTH,ComponentDrill
T2C0.0354
; #@! TA.AperFunction,Plated,PTH,ComponentDrill
T3C0.0394
; #@! TA.AperFunction,Plated,PTH,ComponentDrill
T4C0.0433
; #@! TA.AperFunction,Plated,PTH,ComponentDrill
T5C0.0550
%
G90
G05
T1
X5.231Y-4.0506
X5.3416Y-3.5463
X5.3416Y-3.8463
X5.3543Y-4.3382
X5.3543Y-4.6382
X5.4991Y-3.5463
X5.4991Y-3.8463
X5.531Y-4.0506
X5.5906Y-4.3382
X5.5906Y-4.6382
X5.6959Y-3.5175
X5.6959Y-3.6175
X5.6959Y-3.7175
X5.6959Y-3.8175
X5.7034Y-4.0506
X5.8268Y-4.3382
X5.8268Y-4.6382
X5.9959Y-3.5175
X5.9959Y-3.6175
X5.9959Y-3.7175
X5.9959Y-3.8175
X6.0034Y-4.0506
X6.063Y-4.3382
X6.063Y-4.6382
X6.2992Y-4.3382
X6.2992Y-4.6382
X6.307Y-3.587
X6.307Y-3.887
X6.5354Y-4.3382
X6.5354Y-4.6382
T2
X5.3543Y-4.85
X5.3543Y-4.95
X5.5906Y-4.85
X5.5906Y-4.95
X5.8268Y-4.85
X5.8268Y-4.95
X6.063Y-4.85
X6.063Y-4.95
X6.2992Y-4.85
X6.2992Y-4.95
X6.5354Y-4.85
X6.5354Y-4.95
T3
X5.1408Y-5.1435
X5.2408Y-5.1435
X5.3408Y-5.1435
X5.4408Y-5.1435
X5.5007Y-3.2435
X5.5408Y-5.1435
X5.6007Y-3.2435
X5.6408Y-5.1435
X5.7007Y-3.2435
X5.7408Y-5.1435
X5.8007Y-3.2435
X5.8408Y-5.1435
X5.9007Y-3.2435
X5.9408Y-5.1435
X6.0007Y-3.2435
X6.0408Y-5.1435
X6.1007Y-3.2435
X6.2007Y-3.2435
X6.2007Y-5.1435
X6.2976Y-3.3858
X6.3007Y-5.1435
X6.3976Y-3.3858
X6.4007Y-3.2435
X6.4007Y-5.1435
X6.4976Y-3.3858
X6.5007Y-3.2435
X6.5007Y-5.1435
X6.5976Y-3.3858
X6.6007Y-3.2435
X6.6007Y-5.1435
X6.6976Y-3.3858
X6.7007Y-3.2435
X6.7007Y-5.1435
X6.8007Y-3.2435
X6.8007Y-5.1435
X6.9007Y-3.2435
X6.9007Y-5.1435
T4
X6.6515Y-3.609
X6.6515Y-3.865
X6.8287Y-3.609
X6.8287Y-3.865
T5
X4.9004Y-3.4438
X4.9004Y-4.0342
X4.9005Y-3.739
X4.9014Y-4.3448
X4.9014Y-4.9352
X4.9015Y-4.64
X4.9989Y-3.5423
X4.9989Y-3.9357
X4.9999Y-4.4433
X4.9999Y-4.8367
T0
M30
